<svg width="19" height="22" viewBox="0 0 19 22" fill="none" xmlns="http://www.w3.org/2000/svg">
<path d="M14.0465 21.4634C13.6433 21.3002 13.3554 20.9355 13.2882 20.5036C13.2402 20.254 13.2882 20.0812 13.6721 19.3901C15.1119 16.7986 15.851 13.871 15.8126 10.9051C15.851 8.02558 15.1503 5.21323 13.7681 2.68884C13.5666 2.26651 13.3842 1.86337 13.2306 1.43144C13.2882 1.0667 13.4706 0.730755 13.7681 0.529187C14.2 0.298824 14.728 0.346816 15.1215 0.615573C15.3903 0.961118 15.6206 1.30666 15.8126 1.7098C16.8492 3.70627 17.5499 5.81793 17.8955 8.02558C18.1162 9.7629 18.145 11.529 17.9818 13.2759C17.6843 15.522 17.022 17.6912 16.0046 19.7165C15.3903 20.9451 15.0447 21.4634 14.68 21.4634C14.6032 21.4634 14.5168 21.4634 14.44 21.4634C14.3056 21.4634 14.1809 21.4634 14.0465 21.4634ZM9.86155 19.3422C9.31444 19.1886 8.96889 18.6319 9.08407 18.0752C9.08407 17.96 9.38163 17.4321 9.65038 16.8946C10.783 14.7157 11.2725 12.2585 11.0518 9.81089C10.9174 8.05437 10.4087 6.34585 9.5736 4.8005C8.96889 3.59109 8.9305 3.39912 9.28564 2.88081C9.70797 2.41048 10.4087 2.34329 10.927 2.74643C11.6181 3.76387 12.1652 4.87729 12.5683 6.0483C13.7969 9.68611 13.6049 13.6503 12.0308 17.1441C11.2245 18.9582 10.6582 19.5437 9.86155 19.2942V19.3422ZM5.54225 17.2017C5.1967 17.0481 4.93754 16.741 4.84156 16.3762C4.84156 16.1843 4.84156 15.9347 5.27349 15.1668C6.70366 12.5752 6.70366 9.42695 5.27349 6.83537C4.64959 5.62597 4.64959 5.37641 5.15831 4.91568C5.34068 4.70451 5.60944 4.59893 5.89739 4.63732C6.51169 4.63732 6.85723 4.93488 7.37555 6.0195C8.19142 7.51686 8.61375 9.19659 8.60415 10.9051C8.64255 12.6424 8.22021 14.3702 7.38515 15.8963C6.86683 16.9042 6.60767 17.1441 6.08936 17.2305C5.90699 17.2497 5.71502 17.2305 5.54225 17.1441V17.2017ZM1.5013 15.1572C1.18455 15.0037 0.934989 14.7445 0.810209 14.4085C0.714224 14.0726 0.810209 13.7846 1.19415 13.1703C1.67407 12.5177 1.90443 11.7114 1.85644 10.9051C1.92363 10.0892 1.70286 9.28298 1.23254 8.61108C1.06937 8.37112 0.934989 8.11196 0.810209 7.85281C0.704626 7.2481 1.10776 6.6722 1.77005 6.55702C2.28837 6.46103 2.65311 6.6818 3.13303 7.41128C4.52481 9.53254 4.52481 12.2681 3.13303 14.3894C2.64351 15.1284 2.0868 15.3492 1.5109 15.1572H1.5013Z" fill="white"/>
</svg>
