<svg width="27" height="29" viewBox="0 0 27 29" fill="none" xmlns="http://www.w3.org/2000/svg">
<path d="M10.7623 26.5312C10.7623 26.9098 10.6683 27.2799 10.4921 27.5946C10.316 27.9094 10.0657 28.1547 9.77279 28.2996C9.4799 28.4445 9.15762 28.4824 8.84669 28.4085C8.53576 28.3347 8.25015 28.1524 8.02598 27.8847C7.80181 27.617 7.64915 27.276 7.5873 26.9047C7.52545 26.5334 7.5572 26.1485 7.67852 25.7988C7.79984 25.449 8.00528 25.1501 8.26888 24.9398C8.53247 24.7294 8.84237 24.6172 9.15939 24.6172C9.58451 24.6172 9.99221 24.8188 10.2928 25.1778C10.5934 25.5368 10.7623 26.0236 10.7623 26.5312ZM21.0666 24.6172C20.7496 24.6172 20.4397 24.7294 20.1761 24.9398C19.9125 25.1501 19.707 25.449 19.5857 25.7988C19.4644 26.1485 19.4326 26.5334 19.4945 26.9047C19.5563 27.276 19.709 27.617 19.9332 27.8847C20.1573 28.1524 20.4429 28.3347 20.7539 28.4085C21.0648 28.4824 21.3871 28.4445 21.68 28.2996C21.9729 28.1547 22.2232 27.9094 22.3993 27.5946C22.5755 27.2799 22.6695 26.9098 22.6695 26.5312C22.6695 26.0236 22.5006 25.5368 22.2 25.1778C21.8994 24.8188 21.4917 24.6172 21.0666 24.6172V24.6172ZM26.047 7.0625L23.0244 19.6953C22.8714 20.3237 22.5524 20.8761 22.1149 21.2703C21.6775 21.6645 21.1452 21.8794 20.5972 21.8828H9.62881C9.08082 21.8794 8.54843 21.6645 8.11103 21.2703C7.67362 20.8761 7.35462 20.3237 7.20158 19.6953L4.17898 7.08984V7.04883L3.05696 2.40039C3.04632 2.34134 3.01879 2.28856 2.97908 2.25113C2.93938 2.2137 2.89 2.19396 2.83943 2.19531H0.915957C0.733766 2.19531 0.559037 2.10889 0.430208 1.95505C0.301379 1.80121 0.229004 1.59256 0.229004 1.375C0.229004 1.15744 0.301379 0.94879 0.430208 0.794951C0.559037 0.641113 0.733766 0.554688 0.915957 0.554688H2.83943C3.18872 0.556165 3.52819 0.692887 3.80689 0.944334C4.08558 1.19578 4.28846 1.54838 4.38507 1.94922L5.35825 6.02344H25.3829C25.4896 6.02344 25.5948 6.05309 25.6902 6.11004C25.7855 6.16699 25.8685 6.24968 25.9325 6.35156C25.9959 6.45171 26.0391 6.56788 26.059 6.69113C26.0788 6.81439 26.0747 6.94144 26.047 7.0625V7.0625ZM24.4784 7.66406H5.74753L8.52969 19.2441C8.59697 19.5307 8.74071 19.7832 8.93908 19.9633C9.13744 20.1434 9.37961 20.2413 9.62881 20.2422H20.5972C20.8464 20.2413 21.0885 20.1434 21.2869 19.9633C21.4853 19.7832 21.629 19.5307 21.6963 19.2441L24.4784 7.66406Z" fill="#BCBCCD"/>
</svg>
