<svg width="27" height="29" viewBox="0 0 27 29" fill="none" xmlns="http://www.w3.org/2000/svg">
<path d="M22.8984 26.5312C22.8984 26.9639 22.791 27.3868 22.5897 27.7466C22.3884 28.1063 22.1023 28.3867 21.7676 28.5522C21.4329 28.7178 21.0645 28.7611 20.7092 28.6767C20.3538 28.5923 20.0274 28.384 19.7712 28.078C19.515 27.7721 19.3406 27.3823 19.2699 26.958C19.1992 26.5337 19.2355 26.0938 19.3741 25.6941C19.5128 25.2944 19.7476 24.9528 20.0488 24.7124C20.3501 24.472 20.7043 24.3438 21.0666 24.3438C21.5524 24.3438 22.0183 24.5742 22.3619 24.9845C22.7054 25.3947 22.8984 25.9511 22.8984 26.5312ZM9.15937 24.3438C8.79706 24.3438 8.44289 24.472 8.14164 24.7124C7.84039 24.9528 7.60559 25.2944 7.46694 25.6941C7.32829 26.0938 7.29202 26.5337 7.3627 26.958C7.43338 27.3823 7.60785 27.7721 7.86404 28.078C8.12024 28.384 8.44664 28.5923 8.80199 28.6767C9.15734 28.7611 9.52567 28.7178 9.8604 28.5522C10.1951 28.3867 10.4812 28.1063 10.6825 27.7466C10.8838 27.3868 10.9912 26.9639 10.9912 26.5312C10.9912 25.9511 10.7982 25.3947 10.4547 24.9845C10.1112 24.5742 9.64522 24.3438 9.15937 24.3438ZM26.1157 6.1875C26.0297 6.05244 25.919 5.94275 25.7919 5.86689C25.6649 5.79104 25.525 5.75105 25.3829 5.75H5.52997L4.60259 1.86719C4.49138 1.41102 4.25957 1.01006 3.94178 0.724214C3.62398 0.438365 3.23727 0.282972 2.83941 0.28125H0.915937C0.673016 0.28125 0.440043 0.396484 0.268272 0.601602C0.0965003 0.80672 0 1.08492 0 1.375C0 1.66508 0.0965003 1.94328 0.268272 2.1484C0.440043 2.35352 0.673016 2.46875 0.915937 2.46875H2.83941L3.96143 7.13086V7.1582L6.98402 19.7773C7.15 20.4622 7.49751 21.0642 7.97438 21.4932C8.45125 21.9221 9.03177 22.1548 9.62879 22.1562H20.5971C21.1942 22.1548 21.7747 21.9221 22.2516 21.4932C22.7284 21.0642 23.0759 20.4622 23.2419 19.7773L26.2645 7.14453C26.3033 6.98212 26.31 6.81119 26.2842 6.64515C26.2583 6.47912 26.2007 6.32247 26.1157 6.1875V6.1875Z" fill="black"/>
</svg>
