<svg width="39" height="39" viewBox="0 0 39 39" fill="none" xmlns="http://www.w3.org/2000/svg">
<path fill-rule="evenodd" clip-rule="evenodd" d="M0 19.5C0 14.3283 2.05446 9.36838 5.71142 5.71142C9.36838 2.05446 14.3283 0 19.5 0C24.6717 0 29.6316 2.05446 33.2886 5.71142C36.9455 9.36838 39 14.3283 39 19.5C39 24.6717 36.9455 29.6316 33.2886 33.2886C29.6316 36.9455 24.6717 39 19.5 39C14.3283 39 9.36838 36.9455 5.71142 33.2886C2.05446 29.6316 0 24.6717 0 19.5H0ZM18.3872 27.846L29.614 13.8112L27.586 12.1888L18.0128 24.1514L11.232 18.5016L9.568 20.4984L18.3872 27.8486V27.846Z" fill="#017E06"/>
</svg>
