<svg width="24" height="28" viewBox="0 0 24 28" fill="none" xmlns="http://www.w3.org/2000/svg">
<path d="M1.5 13H22.5" stroke="#2E335B" stroke-width="2" stroke-linecap="round" stroke-linejoin="round"/>
<path d="M8 23L5 27" stroke="#2E335B" stroke-width="2" stroke-linecap="round" stroke-linejoin="round"/>
<path d="M16 23L19 27" stroke="#2E335B" stroke-width="2" stroke-linecap="round" stroke-linejoin="round"/>
<path d="M19.5 1H4.5C2.84315 1 1.5 2.34315 1.5 4V20C1.5 21.6569 2.84315 23 4.5 23H19.5C21.1569 23 22.5 21.6569 22.5 20V4C22.5 2.34315 21.1569 1 19.5 1Z" stroke="#2E335B" stroke-width="2" stroke-linecap="round" stroke-linejoin="round"/>
<path d="M6.5 20C7.32843 20 8 19.3284 8 18.5C8 17.6716 7.32843 17 6.5 17C5.67157 17 5 17.6716 5 18.5C5 19.3284 5.67157 20 6.5 20Z" fill="#2E335B"/>
<path d="M17.5 20C18.3284 20 19 19.3284 19 18.5C19 17.6716 18.3284 17 17.5 17C16.6716 17 16 17.6716 16 18.5C16 19.3284 16.6716 20 17.5 20Z" fill="#2E335B"/>
</svg>
