<svg width="30" height="35" viewBox="0 0 30 35" fill="none" xmlns="http://www.w3.org/2000/svg">
<path d="M3.94088 14.5531H1.22905C1.22905 14.5531 0.782123 15.5028 0.502793 16.5084C0.254697 17.3235 0 18.6313 0 18.6313H3.49518C4.7298 18.6313 6.14375 18.5285 6.80422 17.4854C6.97771 17.2114 7.09497 16.8864 7.09497 16.5084C7.09497 15.9788 6.86477 15.5755 6.57223 15.2768C5.91216 14.6027 4.8843 14.5531 3.94088 14.5531Z" fill="#2E335B"/>
<path d="M14.0562 14.5531H27.1508C27.1508 14.5531 27.693 15.6431 27.933 16.3967C28.1729 17.1502 28.3799 18.6313 28.3799 18.6313H13.5688C13.1268 18.6313 12.6728 18.6213 12.2776 18.4235C11.8017 18.1853 11.229 17.6884 11.229 16.676C11.229 15.9234 11.5456 15.4239 11.9035 15.0998C12.4706 14.5864 13.2913 14.5531 14.0562 14.5531Z" fill="#2E335B"/>
<path d="M14.9183 22.6537H0C0 22.6537 0.240133 24.1114 0.502793 24.9442C0.73555 25.6821 1.22905 26.8995 1.22905 26.8995H14.5771C15.5063 26.8995 16.5412 26.8406 17.103 26.1005C17.3512 25.7734 17.5419 25.3254 17.5419 24.7207C17.5419 23.9582 17.2387 23.4665 16.8993 23.1548C16.3804 22.6785 15.6225 22.6537 14.9183 22.6537Z" fill="#2E335B"/>
<path d="M24.7483 22.6537H28.3799C28.3799 22.6537 28.3072 23.8927 28.0447 24.7207C27.8083 25.4662 27.1508 26.8995 27.1508 26.8995H23.759C23.302 26.8995 22.8301 26.8899 22.4285 26.6717C21.9765 26.4262 21.4525 25.9291 21.4525 24.9442C21.4525 24.43 21.5953 24.0192 21.7962 23.6957C22.3814 22.7532 23.6389 22.6537 24.7483 22.6537Z" fill="#2E335B"/>
<path d="M4.24581 30.866H24.2458C24.2458 30.866 20.8939 35 14.1341 35C7.3743 35 4.24581 30.866 4.24581 30.866Z" fill="#2E335B"/>
<path d="M14.3437 8.69204H14.1899H14.0362L8.27747 7.07202V11.057C8.27747 12.3578 10.9263 13.422 14.1899 13.422C17.4536 13.422 20.1024 12.3578 20.1024 11.057V7.07202L14.3437 8.69204Z" fill="#2E335B"/>
<path d="M24.9861 3.8924L14.3436 0.936165C14.2442 0.900998 14.1357 0.900998 14.0362 0.936165L3.39374 3.8924C3.23693 3.8924 3.08654 3.9547 2.97566 4.06558C2.86478 4.17646 2.80249 4.32684 2.80249 4.48365C2.80249 4.64046 2.86478 4.79085 2.97566 4.90173C3.08654 5.01261 3.23693 5.0749 3.39374 5.0749L14.0362 8.03114L14.1899 8.00749H14.3436L24.9861 5.05125C25.1429 5.05125 25.2933 4.98896 25.4042 4.87808C25.5151 4.7672 25.5773 4.61681 25.5773 4.46C25.5773 4.30319 25.5151 4.15281 25.4042 4.04193C25.2933 3.93105 25.1429 3.86875 24.9861 3.86875V3.8924Z" fill="#2E335B"/>
<path d="M27.7132 7.32047C27.6277 7.20053 27.5126 7.10479 27.3791 7.04259C27.2456 6.9804 27.0982 6.95387 26.9514 6.96559L25.1869 4.40378L24.485 4.8872L26.2495 7.44901C26.1862 7.58201 26.1585 7.72915 26.169 7.87607C26.1795 8.02299 26.2279 8.16468 26.3095 8.28731C26.3903 8.39854 26.4969 8.48856 26.6201 8.54968C26.7433 8.6108 26.8794 8.6412 27.0169 8.63829L28.0014 10.7438C28.1803 11.0035 28.6412 10.9966 29.0272 10.7307C29.4132 10.4648 29.584 10.0367 29.4052 9.77701L27.7889 8.10653C27.8407 7.97911 27.8608 7.84108 27.8476 7.7042C27.8344 7.56732 27.7883 7.43567 27.7132 7.32047Z" fill="#2E335B"/>
</svg>
