<svg width="28" height="21" viewBox="0 0 28 21" fill="none" xmlns="http://www.w3.org/2000/svg">
<path d="M8.75 11.875H19.25" stroke="white" stroke-width="1.75" stroke-linecap="round" stroke-linejoin="round"/>
<path d="M5.25 7.5V4.875C5.25 3.94674 5.61875 3.0565 6.27513 2.40013C6.9315 1.74375 7.82174 1.375 8.75 1.375H19.25C20.1783 1.375 21.0685 1.74375 21.7249 2.40013C22.3813 3.0565 22.75 3.94674 22.75 4.875V7.5" stroke="white" stroke-width="1.75" stroke-linecap="round" stroke-linejoin="round"/>
<path d="M8.75 15.375V11C8.75 10.3078 8.54473 9.63108 8.16015 9.05551C7.77556 8.47993 7.22893 8.03133 6.58939 7.76642C5.94985 7.50152 5.24612 7.4322 4.56719 7.56725C3.88825 7.7023 3.26461 8.03564 2.77513 8.52513C2.28564 9.01461 1.9523 9.63825 1.81725 10.3172C1.6822 10.9961 1.75152 11.6999 2.01642 12.3394C2.28133 12.9789 2.72993 13.5256 3.30551 13.9101C3.88108 14.2947 4.55777 14.5 5.25 14.5V18.875C5.25 19.1071 5.34219 19.3296 5.50628 19.4937C5.67038 19.6578 5.89294 19.75 6.125 19.75H21.875C22.1071 19.75 22.3296 19.6578 22.4937 19.4937C22.6578 19.3296 22.75 19.1071 22.75 18.875V14.5C23.4422 14.5 24.1189 14.2947 24.6945 13.9101C25.2701 13.5256 25.7187 12.9789 25.9836 12.3394C26.2485 11.6999 26.3178 10.9961 26.1828 10.3172C26.0477 9.63825 25.7144 9.01461 25.2249 8.52513C24.7354 8.03564 24.1118 7.7023 23.4328 7.56725C22.7539 7.4322 22.0502 7.50152 21.4106 7.76642C20.7711 8.03133 20.2244 8.47993 19.8399 9.05551C19.4553 9.63108 19.25 10.3078 19.25 11V15.375" stroke="white" stroke-width="1.75" stroke-linecap="round" stroke-linejoin="round"/>
</svg>
