<svg width="328" height="200" viewBox="0 0 328 200" fill="none" xmlns="http://www.w3.org/2000/svg">
<path opacity="0.3" d="M0.696 6.412C0.744 5.668 1.028 5.088 1.548 4.672C2.076 4.256 2.748 4.048 3.564 4.048C4.124 4.048 4.608 4.148 5.016 4.348C5.424 4.548 5.732 4.82 5.94 5.164C6.148 5.508 6.252 5.896 6.252 6.328C6.252 6.824 6.12 7.248 5.856 7.6C5.592 7.952 5.276 8.188 4.908 8.308V8.356C5.38 8.5 5.748 8.764 6.012 9.148C6.276 9.524 6.408 10.008 6.408 10.6C6.408 11.072 6.3 11.492 6.084 11.86C5.868 12.228 5.548 12.52 5.124 12.736C4.7 12.944 4.192 13.048 3.6 13.048C2.736 13.048 2.024 12.828 1.464 12.388C0.912 11.94 0.616 11.3 0.576 10.468H1.896C1.928 10.892 2.092 11.24 2.388 11.512C2.684 11.776 3.084 11.908 3.588 11.908C4.076 11.908 4.452 11.776 4.716 11.512C4.98 11.24 5.112 10.892 5.112 10.468C5.112 9.908 4.932 9.512 4.572 9.28C4.22 9.04 3.676 8.92 2.94 8.92H2.628V7.792H2.952C3.6 7.784 4.092 7.676 4.428 7.468C4.772 7.26 4.944 6.932 4.944 6.484C4.944 6.1 4.82 5.796 4.572 5.572C4.324 5.34 3.972 5.224 3.516 5.224C3.068 5.224 2.72 5.34 2.472 5.572C2.224 5.796 2.076 6.076 2.028 6.412H0.696ZM7.845 8.512C7.845 7.128 8.077 6.048 8.541 5.272C9.013 4.488 9.821 4.096 10.965 4.096C12.109 4.096 12.913 4.488 13.377 5.272C13.849 6.048 14.085 7.128 14.085 8.512C14.085 9.912 13.849 11.008 13.377 11.8C12.913 12.584 12.109 12.976 10.965 12.976C9.821 12.976 9.013 12.584 8.541 11.8C8.077 11.008 7.845 9.912 7.845 8.512ZM12.741 8.512C12.741 7.864 12.697 7.316 12.609 6.868C12.529 6.42 12.361 6.056 12.105 5.776C11.849 5.488 11.469 5.344 10.965 5.344C10.461 5.344 10.081 5.488 9.825 5.776C9.569 6.056 9.397 6.42 9.309 6.868C9.229 7.316 9.189 7.864 9.189 8.512C9.189 9.184 9.229 9.748 9.309 10.204C9.389 10.66 9.557 11.028 9.813 11.308C10.077 11.588 10.461 11.728 10.965 11.728C11.469 11.728 11.849 11.588 12.105 11.308C12.369 11.028 12.541 10.66 12.621 10.204C12.701 9.748 12.741 9.184 12.741 8.512ZM15.5325 8.512C15.5325 7.128 15.7645 6.048 16.2285 5.272C16.7005 4.488 17.5085 4.096 18.6525 4.096C19.7965 4.096 20.6005 4.488 21.0645 5.272C21.5365 6.048 21.7725 7.128 21.7725 8.512C21.7725 9.912 21.5365 11.008 21.0645 11.8C20.6005 12.584 19.7965 12.976 18.6525 12.976C17.5085 12.976 16.7005 12.584 16.2285 11.8C15.7645 11.008 15.5325 9.912 15.5325 8.512ZM20.4285 8.512C20.4285 7.864 20.3845 7.316 20.2965 6.868C20.2165 6.42 20.0485 6.056 19.7925 5.776C19.5365 5.488 19.1565 5.344 18.6525 5.344C18.1485 5.344 17.7685 5.488 17.5125 5.776C17.2565 6.056 17.0845 6.42 16.9965 6.868C16.9165 7.316 16.8765 7.864 16.8765 8.512C16.8765 9.184 16.9165 9.748 16.9965 10.204C17.0765 10.66 17.2445 11.028 17.5005 11.308C17.7645 11.588 18.1485 11.728 18.6525 11.728C19.1565 11.728 19.5365 11.588 19.7925 11.308C20.0565 11.028 20.2285 10.66 20.3085 10.204C20.3885 9.748 20.4285 9.184 20.4285 8.512Z" fill="#2E335B"/>
<path opacity="0.3" d="M1.476 63.14C2.244 62.476 2.848 61.932 3.288 61.508C3.736 61.076 4.108 60.628 4.404 60.164C4.7 59.7 4.848 59.236 4.848 58.772C4.848 58.292 4.732 57.916 4.5 57.644C4.276 57.372 3.92 57.236 3.432 57.236C2.96 57.236 2.592 57.388 2.328 57.692C2.072 57.988 1.936 58.388 1.92 58.892H0.6C0.624 57.98 0.896 57.284 1.416 56.804C1.944 56.316 2.612 56.072 3.42 56.072C4.292 56.072 4.972 56.312 5.46 56.792C5.956 57.272 6.204 57.912 6.204 58.712C6.204 59.288 6.056 59.844 5.76 60.38C5.472 60.908 5.124 61.384 4.716 61.808C4.316 62.224 3.804 62.708 3.18 63.26L2.64 63.74H6.444V64.88H0.612V63.884L1.476 63.14ZM7.64578 60.512C7.64578 59.128 7.87778 58.048 8.34178 57.272C8.81378 56.488 9.62178 56.096 10.7658 56.096C11.9098 56.096 12.7138 56.488 13.1778 57.272C13.6498 58.048 13.8858 59.128 13.8858 60.512C13.8858 61.912 13.6498 63.008 13.1778 63.8C12.7138 64.584 11.9098 64.976 10.7658 64.976C9.62178 64.976 8.81378 64.584 8.34178 63.8C7.87778 63.008 7.64578 61.912 7.64578 60.512ZM12.5418 60.512C12.5418 59.864 12.4978 59.316 12.4098 58.868C12.3298 58.42 12.1618 58.056 11.9058 57.776C11.6498 57.488 11.2698 57.344 10.7658 57.344C10.2618 57.344 9.88178 57.488 9.62578 57.776C9.36978 58.056 9.19778 58.42 9.10978 58.868C9.02978 59.316 8.98978 59.864 8.98978 60.512C8.98978 61.184 9.02978 61.748 9.10978 62.204C9.18978 62.66 9.35778 63.028 9.61378 63.308C9.87778 63.588 10.2618 63.728 10.7658 63.728C11.2698 63.728 11.6498 63.588 11.9058 63.308C12.1698 63.028 12.3418 62.66 12.4218 62.204C12.5018 61.748 12.5418 61.184 12.5418 60.512ZM15.3333 60.512C15.3333 59.128 15.5653 58.048 16.0293 57.272C16.5013 56.488 17.3093 56.096 18.4533 56.096C19.5973 56.096 20.4013 56.488 20.8653 57.272C21.3373 58.048 21.5733 59.128 21.5733 60.512C21.5733 61.912 21.3373 63.008 20.8653 63.8C20.4013 64.584 19.5973 64.976 18.4533 64.976C17.3093 64.976 16.5013 64.584 16.0293 63.8C15.5653 63.008 15.3333 61.912 15.3333 60.512ZM20.2293 60.512C20.2293 59.864 20.1853 59.316 20.0973 58.868C20.0173 58.42 19.8493 58.056 19.5933 57.776C19.3373 57.488 18.9573 57.344 18.4533 57.344C17.9493 57.344 17.5693 57.488 17.3133 57.776C17.0573 58.056 16.8853 58.42 16.7973 58.868C16.7173 59.316 16.6773 59.864 16.6773 60.512C16.6773 61.184 16.7173 61.748 16.7973 62.204C16.8773 62.66 17.0453 63.028 17.3013 63.308C17.5653 63.588 17.9493 63.728 18.4533 63.728C18.9573 63.728 19.3373 63.588 19.5933 63.308C19.8573 63.028 20.0293 62.66 20.1093 62.204C20.1893 61.748 20.2293 61.184 20.2293 60.512Z" fill="#2E335B"/>
<path opacity="0.3" d="M2.54 109.5V108.252H5.036V117H3.656V109.5H2.54ZM6.91531 112.512C6.91531 111.128 7.14731 110.048 7.61131 109.272C8.08331 108.488 8.89131 108.096 10.0353 108.096C11.1793 108.096 11.9833 108.488 12.4473 109.272C12.9193 110.048 13.1553 111.128 13.1553 112.512C13.1553 113.912 12.9193 115.008 12.4473 115.8C11.9833 116.584 11.1793 116.976 10.0353 116.976C8.89131 116.976 8.08331 116.584 7.61131 115.8C7.14731 115.008 6.91531 113.912 6.91531 112.512ZM11.8113 112.512C11.8113 111.864 11.7673 111.316 11.6793 110.868C11.5993 110.42 11.4313 110.056 11.1753 109.776C10.9193 109.488 10.5393 109.344 10.0353 109.344C9.53131 109.344 9.15131 109.488 8.89531 109.776C8.63931 110.056 8.46731 110.42 8.37931 110.868C8.29931 111.316 8.25931 111.864 8.25931 112.512C8.25931 113.184 8.29931 113.748 8.37931 114.204C8.45931 114.66 8.62731 115.028 8.88331 115.308C9.14731 115.588 9.53131 115.728 10.0353 115.728C10.5393 115.728 10.9193 115.588 11.1753 115.308C11.4393 115.028 11.6113 114.66 11.6913 114.204C11.7713 113.748 11.8113 113.184 11.8113 112.512ZM14.6028 112.512C14.6028 111.128 14.8348 110.048 15.2988 109.272C15.7708 108.488 16.5788 108.096 17.7228 108.096C18.8668 108.096 19.6708 108.488 20.1348 109.272C20.6068 110.048 20.8428 111.128 20.8428 112.512C20.8428 113.912 20.6068 115.008 20.1348 115.8C19.6708 116.584 18.8668 116.976 17.7228 116.976C16.5788 116.976 15.7708 116.584 15.2988 115.8C14.8348 115.008 14.6028 113.912 14.6028 112.512ZM19.4988 112.512C19.4988 111.864 19.4548 111.316 19.3668 110.868C19.2868 110.42 19.1188 110.056 18.8628 109.776C18.6068 109.488 18.2268 109.344 17.7228 109.344C17.2188 109.344 16.8388 109.488 16.5828 109.776C16.3268 110.056 16.1548 110.42 16.0668 110.868C15.9868 111.316 15.9468 111.864 15.9468 112.512C15.9468 113.184 15.9868 113.748 16.0668 114.204C16.1468 114.66 16.3148 115.028 16.5708 115.308C16.8348 115.588 17.2188 115.728 17.7228 115.728C18.2268 115.728 18.6068 115.588 18.8628 115.308C19.1268 115.028 19.2988 114.66 19.3788 114.204C19.4588 113.748 19.4988 113.184 19.4988 112.512Z" fill="#2E335B"/>
<path opacity="0.3" d="M14.72 164.512C14.72 163.128 14.952 162.048 15.416 161.272C15.888 160.488 16.696 160.096 17.84 160.096C18.984 160.096 19.788 160.488 20.252 161.272C20.724 162.048 20.96 163.128 20.96 164.512C20.96 165.912 20.724 167.008 20.252 167.8C19.788 168.584 18.984 168.976 17.84 168.976C16.696 168.976 15.888 168.584 15.416 167.8C14.952 167.008 14.72 165.912 14.72 164.512ZM19.616 164.512C19.616 163.864 19.572 163.316 19.484 162.868C19.404 162.42 19.236 162.056 18.98 161.776C18.724 161.488 18.344 161.344 17.84 161.344C17.336 161.344 16.956 161.488 16.7 161.776C16.444 162.056 16.272 162.42 16.184 162.868C16.104 163.316 16.064 163.864 16.064 164.512C16.064 165.184 16.104 165.748 16.184 166.204C16.264 166.66 16.432 167.028 16.688 167.308C16.952 167.588 17.336 167.728 17.84 167.728C18.344 167.728 18.724 167.588 18.98 167.308C19.244 167.028 19.416 166.66 19.496 166.204C19.576 165.748 19.616 165.184 19.616 164.512Z" fill="#2E335B"/>
<path opacity="0.3" d="M44.648 196.084C44.088 196.084 43.584 195.988 43.136 195.796C42.688 195.596 42.336 195.316 42.08 194.956C41.824 194.596 41.696 194.176 41.696 193.696H43.16C43.192 194.056 43.332 194.352 43.58 194.584C43.836 194.816 44.192 194.932 44.648 194.932C45.12 194.932 45.488 194.82 45.752 194.596C46.016 194.364 46.148 194.068 46.148 193.708C46.148 193.428 46.064 193.2 45.896 193.024C45.736 192.848 45.532 192.712 45.284 192.616C45.044 192.52 44.708 192.416 44.276 192.304C43.732 192.16 43.288 192.016 42.944 191.872C42.608 191.72 42.32 191.488 42.08 191.176C41.84 190.864 41.72 190.448 41.72 189.928C41.72 189.448 41.84 189.028 42.08 188.668C42.32 188.308 42.656 188.032 43.088 187.84C43.52 187.648 44.02 187.552 44.588 187.552C45.396 187.552 46.056 187.756 46.568 188.164C47.088 188.564 47.376 189.116 47.432 189.82H45.92C45.896 189.516 45.752 189.256 45.488 189.04C45.224 188.824 44.876 188.716 44.444 188.716C44.052 188.716 43.732 188.816 43.484 189.016C43.236 189.216 43.112 189.504 43.112 189.88C43.112 190.136 43.188 190.348 43.34 190.516C43.5 190.676 43.7 190.804 43.94 190.9C44.18 190.996 44.508 191.1 44.924 191.212C45.476 191.364 45.924 191.516 46.268 191.668C46.62 191.82 46.916 192.056 47.156 192.376C47.404 192.688 47.528 193.108 47.528 193.636C47.528 194.06 47.412 194.46 47.18 194.836C46.956 195.212 46.624 195.516 46.184 195.748C45.752 195.972 45.24 196.084 44.648 196.084ZM55.1302 189.388V196H53.7622V195.22C53.5462 195.492 53.2622 195.708 52.9102 195.868C52.5662 196.02 52.1982 196.096 51.8062 196.096C51.2862 196.096 50.8182 195.988 50.4022 195.772C49.9942 195.556 49.6702 195.236 49.4302 194.812C49.1982 194.388 49.0822 193.876 49.0822 193.276V189.388H50.4382V193.072C50.4382 193.664 50.5862 194.12 50.8822 194.44C51.1782 194.752 51.5822 194.908 52.0942 194.908C52.6062 194.908 53.0102 194.752 53.3062 194.44C53.6102 194.12 53.7622 193.664 53.7622 193.072V189.388H55.1302ZM60.2712 189.28C60.7912 189.28 61.2552 189.388 61.6632 189.604C62.0792 189.82 62.4032 190.14 62.6352 190.564C62.8672 190.988 62.9832 191.5 62.9832 192.1V196H61.6272V192.304C61.6272 191.712 61.4792 191.26 61.1832 190.948C60.8872 190.628 60.4832 190.468 59.9712 190.468C59.4592 190.468 59.0512 190.628 58.7472 190.948C58.4512 191.26 58.3032 191.712 58.3032 192.304V196H56.9352V189.388H58.3032V190.144C58.5272 189.872 58.8112 189.66 59.1552 189.508C59.5072 189.356 59.8792 189.28 60.2712 189.28Z" fill="#2E335B"/>
<path opacity="0.3" d="M95.684 187.66V196H94.316V190.288L91.772 196H90.824L88.268 190.288V196H86.9V187.66H88.376L91.304 194.2L94.22 187.66H95.684ZM100.35 196.108C99.726 196.108 99.162 195.968 98.658 195.688C98.154 195.4 97.758 195 97.47 194.488C97.182 193.968 97.038 193.368 97.038 192.688C97.038 192.016 97.186 191.42 97.482 190.9C97.778 190.38 98.182 189.98 98.694 189.7C99.206 189.42 99.778 189.28 100.41 189.28C101.042 189.28 101.614 189.42 102.126 189.7C102.638 189.98 103.042 190.38 103.338 190.9C103.634 191.42 103.782 192.016 103.782 192.688C103.782 193.36 103.63 193.956 103.326 194.476C103.022 194.996 102.606 195.4 102.078 195.688C101.558 195.968 100.982 196.108 100.35 196.108ZM100.35 194.92C100.702 194.92 101.03 194.836 101.334 194.668C101.646 194.5 101.898 194.248 102.09 193.912C102.282 193.576 102.378 193.168 102.378 192.688C102.378 192.208 102.286 191.804 102.102 191.476C101.918 191.14 101.674 190.888 101.37 190.72C101.066 190.552 100.738 190.468 100.386 190.468C100.034 190.468 99.706 190.552 99.402 190.72C99.106 190.888 98.87 191.14 98.694 191.476C98.518 191.804 98.43 192.208 98.43 192.688C98.43 193.4 98.61 193.952 98.97 194.344C99.338 194.728 99.798 194.92 100.35 194.92ZM108.47 189.28C108.99 189.28 109.454 189.388 109.862 189.604C110.278 189.82 110.602 190.14 110.834 190.564C111.066 190.988 111.182 191.5 111.182 192.1V196H109.826V192.304C109.826 191.712 109.678 191.26 109.382 190.948C109.086 190.628 108.682 190.468 108.17 190.468C107.658 190.468 107.25 190.628 106.946 190.948C106.65 191.26 106.502 191.712 106.502 192.304V196H105.134V189.388H106.502V190.144C106.726 189.872 107.01 189.66 107.354 189.508C107.706 189.356 108.078 189.28 108.47 189.28Z" fill="#2E335B"/>
<path d="M139.288 187.66V188.776H137.068V196H135.7V188.776H133.468V187.66H139.288ZM146.661 189.388V196H145.293V195.22C145.077 195.492 144.793 195.708 144.441 195.868C144.097 196.02 143.729 196.096 143.337 196.096C142.817 196.096 142.349 195.988 141.933 195.772C141.525 195.556 141.201 195.236 140.961 194.812C140.729 194.388 140.613 193.876 140.613 193.276V189.388H141.969V193.072C141.969 193.664 142.117 194.12 142.413 194.44C142.709 194.752 143.113 194.908 143.625 194.908C144.137 194.908 144.541 194.752 144.837 194.44C145.141 194.12 145.293 193.664 145.293 193.072V189.388H146.661ZM154.526 192.532C154.526 192.78 154.51 193.004 154.478 193.204H149.426C149.466 193.732 149.662 194.156 150.014 194.476C150.366 194.796 150.798 194.956 151.31 194.956C152.046 194.956 152.566 194.648 152.87 194.032H154.346C154.146 194.64 153.782 195.14 153.254 195.532C152.734 195.916 152.086 196.108 151.31 196.108C150.678 196.108 150.11 195.968 149.606 195.688C149.11 195.4 148.718 195 148.43 194.488C148.15 193.968 148.01 193.368 148.01 192.688C148.01 192.008 148.146 191.412 148.418 190.9C148.698 190.38 149.086 189.98 149.582 189.7C150.086 189.42 150.662 189.28 151.31 189.28C151.934 189.28 152.49 189.416 152.978 189.688C153.466 189.96 153.846 190.344 154.118 190.84C154.39 191.328 154.526 191.892 154.526 192.532ZM153.098 192.1C153.09 191.596 152.91 191.192 152.558 190.888C152.206 190.584 151.77 190.432 151.25 190.432C150.778 190.432 150.374 190.584 150.038 190.888C149.702 191.184 149.502 191.588 149.438 192.1H153.098Z" fill="#2E335B"/>
<path opacity="0.3" d="M188.76 187.66L186.288 196H184.74L182.988 189.688L181.128 196L179.592 196.012L177.228 187.66H178.68L180.408 194.452L182.28 187.66H183.816L185.556 194.416L187.296 187.66H188.76ZM195.948 192.532C195.948 192.78 195.932 193.004 195.9 193.204H190.848C190.888 193.732 191.084 194.156 191.436 194.476C191.788 194.796 192.22 194.956 192.732 194.956C193.468 194.956 193.988 194.648 194.292 194.032H195.768C195.568 194.64 195.204 195.14 194.676 195.532C194.156 195.916 193.508 196.108 192.732 196.108C192.1 196.108 191.532 195.968 191.028 195.688C190.532 195.4 190.14 195 189.852 194.488C189.572 193.968 189.432 193.368 189.432 192.688C189.432 192.008 189.568 191.412 189.84 190.9C190.12 190.38 190.508 189.98 191.004 189.7C191.508 189.42 192.084 189.28 192.732 189.28C193.356 189.28 193.912 189.416 194.4 189.688C194.888 189.96 195.268 190.344 195.54 190.84C195.812 191.328 195.948 191.892 195.948 192.532ZM194.52 192.1C194.512 191.596 194.332 191.192 193.98 190.888C193.628 190.584 193.192 190.432 192.672 190.432C192.2 190.432 191.796 190.584 191.46 190.888C191.124 191.184 190.924 191.588 190.86 192.1H194.52ZM196.839 192.664C196.839 192 196.975 191.412 197.247 190.9C197.527 190.388 197.903 189.992 198.375 189.712C198.855 189.424 199.387 189.28 199.971 189.28C200.403 189.28 200.827 189.376 201.243 189.568C201.667 189.752 202.003 190 202.251 190.312V187.12H203.631V196H202.251V195.004C202.027 195.324 201.715 195.588 201.315 195.796C200.923 196.004 200.471 196.108 199.959 196.108C199.383 196.108 198.855 195.964 198.375 195.676C197.903 195.38 197.527 194.972 197.247 194.452C196.975 193.924 196.839 193.328 196.839 192.664ZM202.251 192.688C202.251 192.232 202.155 191.836 201.963 191.5C201.779 191.164 201.535 190.908 201.231 190.732C200.927 190.556 200.599 190.468 200.247 190.468C199.895 190.468 199.567 190.556 199.263 190.732C198.959 190.9 198.711 191.152 198.519 191.488C198.335 191.816 198.243 192.208 198.243 192.664C198.243 193.12 198.335 193.52 198.519 193.864C198.711 194.208 198.959 194.472 199.263 194.656C199.575 194.832 199.903 194.92 200.247 194.92C200.599 194.92 200.927 194.832 201.231 194.656C201.535 194.48 201.779 194.224 201.963 193.888C202.155 193.544 202.251 193.144 202.251 192.688Z" fill="#2E335B"/>
<path opacity="0.3" d="M233.288 187.66V188.776H231.068V196H229.7V188.776H227.468V187.66H233.288ZM238.093 189.28C238.597 189.28 239.045 189.388 239.437 189.604C239.837 189.82 240.149 190.14 240.373 190.564C240.605 190.988 240.721 191.5 240.721 192.1V196H239.365V192.304C239.365 191.712 239.217 191.26 238.921 190.948C238.625 190.628 238.221 190.468 237.709 190.468C237.197 190.468 236.789 190.628 236.485 190.948C236.189 191.26 236.041 191.712 236.041 192.304V196H234.673V187.12H236.041V190.156C236.273 189.876 236.565 189.66 236.917 189.508C237.277 189.356 237.669 189.28 238.093 189.28ZM248.454 189.388V196H247.086V195.22C246.87 195.492 246.586 195.708 246.234 195.868C245.89 196.02 245.522 196.096 245.13 196.096C244.61 196.096 244.142 195.988 243.726 195.772C243.318 195.556 242.994 195.236 242.754 194.812C242.522 194.388 242.406 193.876 242.406 193.276V189.388H243.762V193.072C243.762 193.664 243.91 194.12 244.206 194.44C244.502 194.752 244.906 194.908 245.418 194.908C245.93 194.908 246.334 194.752 246.63 194.44C246.934 194.12 247.086 193.664 247.086 193.072V189.388H248.454Z" fill="#2E335B"/>
<path opacity="0.3" d="M277.808 187.66V188.776H274.268V191.236H277.028V192.352H274.268V196H272.9V187.66H277.808ZM280.444 190.348C280.644 190.012 280.908 189.752 281.236 189.568C281.572 189.376 281.968 189.28 282.424 189.28V190.696H282.076C281.54 190.696 281.132 190.832 280.852 191.104C280.58 191.376 280.444 191.848 280.444 192.52V196H279.076V189.388H280.444V190.348ZM284.377 188.512C284.129 188.512 283.921 188.428 283.753 188.26C283.585 188.092 283.501 187.884 283.501 187.636C283.501 187.388 283.585 187.18 283.753 187.012C283.921 186.844 284.129 186.76 284.377 186.76C284.617 186.76 284.821 186.844 284.989 187.012C285.157 187.18 285.241 187.388 285.241 187.636C285.241 187.884 285.157 188.092 284.989 188.26C284.821 188.428 284.617 188.512 284.377 188.512ZM285.049 189.388V196H283.681V189.388H285.049Z" fill="#2E335B"/>
<path opacity="0.3" d="M309.648 196.084C309.088 196.084 308.584 195.988 308.136 195.796C307.688 195.596 307.336 195.316 307.08 194.956C306.824 194.596 306.696 194.176 306.696 193.696H308.16C308.192 194.056 308.332 194.352 308.58 194.584C308.836 194.816 309.192 194.932 309.648 194.932C310.12 194.932 310.488 194.82 310.752 194.596C311.016 194.364 311.148 194.068 311.148 193.708C311.148 193.428 311.064 193.2 310.896 193.024C310.736 192.848 310.532 192.712 310.284 192.616C310.044 192.52 309.708 192.416 309.276 192.304C308.732 192.16 308.288 192.016 307.944 191.872C307.608 191.72 307.32 191.488 307.08 191.176C306.84 190.864 306.72 190.448 306.72 189.928C306.72 189.448 306.84 189.028 307.08 188.668C307.32 188.308 307.656 188.032 308.088 187.84C308.52 187.648 309.02 187.552 309.588 187.552C310.396 187.552 311.056 187.756 311.568 188.164C312.088 188.564 312.376 189.116 312.432 189.82H310.92C310.896 189.516 310.752 189.256 310.488 189.04C310.224 188.824 309.876 188.716 309.444 188.716C309.052 188.716 308.732 188.816 308.484 189.016C308.236 189.216 308.112 189.504 308.112 189.88C308.112 190.136 308.188 190.348 308.34 190.516C308.5 190.676 308.7 190.804 308.94 190.9C309.18 190.996 309.508 191.1 309.924 191.212C310.476 191.364 310.924 191.516 311.268 191.668C311.62 191.82 311.916 192.056 312.156 192.376C312.404 192.688 312.528 193.108 312.528 193.636C312.528 194.06 312.412 194.46 312.18 194.836C311.956 195.212 311.624 195.516 311.184 195.748C310.752 195.972 310.24 196.084 309.648 196.084ZM313.686 192.664C313.686 192 313.822 191.412 314.094 190.9C314.374 190.388 314.75 189.992 315.222 189.712C315.702 189.424 316.23 189.28 316.806 189.28C317.326 189.28 317.778 189.384 318.162 189.592C318.554 189.792 318.866 190.044 319.098 190.348V189.388H320.478V196H319.098V195.016C318.866 195.328 318.55 195.588 318.15 195.796C317.75 196.004 317.294 196.108 316.782 196.108C316.214 196.108 315.694 195.964 315.222 195.676C314.75 195.38 314.374 194.972 314.094 194.452C313.822 193.924 313.686 193.328 313.686 192.664ZM319.098 192.688C319.098 192.232 319.002 191.836 318.81 191.5C318.626 191.164 318.382 190.908 318.078 190.732C317.774 190.556 317.446 190.468 317.094 190.468C316.742 190.468 316.414 190.556 316.11 190.732C315.806 190.9 315.558 191.152 315.366 191.488C315.182 191.816 315.09 192.208 315.09 192.664C315.09 193.12 315.182 193.52 315.366 193.864C315.558 194.208 315.806 194.472 316.11 194.656C316.422 194.832 316.75 194.92 317.094 194.92C317.446 194.92 317.774 194.832 318.078 194.656C318.382 194.48 318.626 194.224 318.81 193.888C319.002 193.544 319.098 193.144 319.098 192.688ZM323.871 190.504V194.164C323.871 194.412 323.927 194.592 324.039 194.704C324.159 194.808 324.359 194.86 324.639 194.86H325.479V196H324.399C323.783 196 323.311 195.856 322.983 195.568C322.655 195.28 322.491 194.812 322.491 194.164V190.504H321.711V189.388H322.491V187.744H323.871V189.388H325.479V190.504H323.871Z" fill="#2E335B"/>
<path opacity="0.2" d="M38 165H328" stroke="#2E335B" stroke-width="0.5"/>
<path opacity="0.2" d="M38 113H328" stroke="#2E335B" stroke-width="0.5"/>
<path opacity="0.2" d="M38 61H328" stroke="#2E335B" stroke-width="0.5"/>
<path opacity="0.2" d="M38 9H328" stroke="#2E335B" stroke-width="0.5"/>
<path d="M316 112.626C298.662 112.626 294.397 134 276.068 134C257.74 134 253.027 93.7368 235.69 93.7368C218.352 93.7368 210.124 131.018 189.318 131.018C163.064 131.018 161.578 49 143.25 49C124.921 49 114.23 102.187 95.9013 102.187C77.5729 102.187 61.8794 61.4269 49 61.4269" stroke="#2E335B" stroke-width="2" stroke-linecap="round"/>
<rect x="136" y="48" width="14" height="117" fill="url(#paint0_linear_102_146)"/>
<circle cx="143" cy="48" r="7" fill="white"/>
<circle cx="143" cy="48" r="3" fill="#2E335B"/>
<defs>
<linearGradient id="paint0_linear_102_146" x1="143" y1="48" x2="143" y2="163" gradientUnits="userSpaceOnUse">
<stop stop-color="#2E335B" stop-opacity="0.5"/>
<stop offset="1" stop-color="#2E335B" stop-opacity="0"/>
</linearGradient>
</defs>
</svg>
