<svg width="24" height="18" viewBox="0 0 24 18" fill="none" xmlns="http://www.w3.org/2000/svg">
<path d="M20.75 1.125H3.25C2.2835 1.125 1.5 1.9085 1.5 2.875V15.125C1.5 16.0915 2.2835 16.875 3.25 16.875H20.75C21.7165 16.875 22.5 16.0915 22.5 15.125V2.875C22.5 1.9085 21.7165 1.125 20.75 1.125Z" stroke="#2E335B" stroke-width="1.5" stroke-linecap="round" stroke-linejoin="round"/>
<path d="M1.5 8.12501H7.7125C7.91401 8.1239 8.10958 8.19325 8.26537 8.32108C8.42116 8.4489 8.52737 8.62716 8.56562 8.82501C8.73272 9.61199 9.16502 10.3177 9.7902 10.8241C10.4154 11.3304 11.1955 11.6067 12 11.6067C12.8045 11.6067 13.5846 11.3304 14.2098 10.8241C14.835 10.3177 15.2673 9.61199 15.4344 8.82501C15.4726 8.62716 15.5788 8.4489 15.7346 8.32108C15.8904 8.19325 16.086 8.1239 16.2875 8.12501H22.5" stroke="#2E335B" stroke-width="1.5" stroke-linecap="round" stroke-linejoin="round"/>
<path d="M1.5 4.625H22.5" stroke="#2E335B" stroke-width="1.5" stroke-linecap="round" stroke-linejoin="round"/>
</svg>
