<svg width="26" height="24" viewBox="0 0 26 24" fill="none" xmlns="http://www.w3.org/2000/svg">
<path d="M2.72967 13.3891C1.74897 11.7368 1.40523 9.78335 1.763 7.89557C2.12077 6.00778 3.15545 4.31556 4.6727 3.13672C6.18996 1.95788 8.0854 1.37352 10.003 1.4934C11.9207 1.61328 13.7286 2.42915 15.0872 3.78777C16.4458 5.1464 17.2617 6.95431 17.3816 8.87195C17.5015 10.7896 16.9171 12.685 15.7383 14.2023C14.5594 15.7195 12.8672 16.7542 10.9794 17.112C9.09164 17.4698 7.13818 17.126 5.48592 16.1453L2.76249 16.9219C2.65027 16.9534 2.53168 16.9545 2.41891 16.925C2.30614 16.8956 2.20325 16.8366 2.12083 16.7542C2.03841 16.6717 1.97942 16.5689 1.94995 16.4561C1.92047 16.3433 1.92156 16.2247 1.95311 16.1125L2.72967 13.3891Z" stroke="#2E335B" stroke-width="1.5" stroke-linecap="round" stroke-linejoin="round"/>
<path d="M9.07391 17.239C9.4594 18.3381 10.0842 19.3378 10.9032 20.166C11.7221 20.9941 12.7148 21.63 13.8095 22.0277C14.9042 22.4254 16.0736 22.5749 17.2332 22.4656C18.3927 22.3562 19.5135 21.9906 20.5145 21.3953V21.3953L23.238 22.1719C23.3502 22.2034 23.4688 22.2045 23.5816 22.175C23.6943 22.1455 23.7972 22.0866 23.8796 22.0041C23.9621 21.9217 24.021 21.8188 24.0505 21.7061C24.08 21.5933 24.0789 21.4747 24.0473 21.3625L23.2708 18.639C23.9641 17.4753 24.345 16.1522 24.3767 14.798C24.4083 13.4438 24.0897 12.1043 23.4515 10.9095C22.8134 9.71459 21.8774 8.70482 20.7343 7.978C19.5912 7.25117 18.2798 6.83194 16.927 6.76093" stroke="#2E335B" stroke-width="1.5" stroke-linecap="round" stroke-linejoin="round"/>
</svg>
