<svg width="22" height="22" viewBox="0 0 22 22" fill="none" xmlns="http://www.w3.org/2000/svg">
<path d="M13.625 19.75V14.5C13.625 14.2679 13.5328 14.0454 13.3687 13.8813C13.2046 13.7172 12.9821 13.625 12.75 13.625H9.25C9.01794 13.625 8.79538 13.7172 8.63128 13.8813C8.46719 14.0454 8.375 14.2679 8.375 14.5V19.75C8.375 19.9821 8.28281 20.2046 8.11872 20.3687C7.95462 20.5328 7.73206 20.625 7.5 20.625H2.25C2.01794 20.625 1.79538 20.5328 1.63128 20.3687C1.46719 20.2046 1.375 19.9821 1.375 19.75V9.6328C1.37696 9.51171 1.40313 9.39223 1.45197 9.28141C1.50081 9.17058 1.57133 9.07065 1.65937 8.98749L10.4094 1.03593C10.5707 0.888359 10.7814 0.806519 11 0.806519C11.2186 0.806519 11.4293 0.888359 11.5906 1.03593L20.3406 8.98749C20.4287 9.07065 20.4992 9.17058 20.548 9.28141C20.5969 9.39223 20.623 9.51171 20.625 9.6328V19.75C20.625 19.9821 20.5328 20.2046 20.3687 20.3687C20.2046 20.5328 19.9821 20.625 19.75 20.625H14.5C14.2679 20.625 14.0454 20.5328 13.8813 20.3687C13.7172 20.2046 13.625 19.9821 13.625 19.75Z" fill="#2E335B" fill-opacity="0.3" stroke="#2E335B" stroke-width="1.5" stroke-linecap="round" stroke-linejoin="round"/>
</svg>
