<svg width="18" height="21" viewBox="0 0 18 21" fill="none" xmlns="http://www.w3.org/2000/svg">
<path d="M2.26843 7.74998C2.26718 6.86084 2.44185 5.98023 2.78239 5.15888C3.12293 4.33754 3.6226 3.59168 4.25262 2.96426C4.88265 2.33685 5.63058 1.84028 6.45334 1.50317C7.2761 1.16605 8.15742 0.995035 9.04655 0.999982C12.7591 1.02811 15.7309 4.11248 15.7309 7.83436V8.49998C15.7309 11.8562 16.434 13.8062 17.0528 14.875C17.1185 14.9888 17.1532 15.1179 17.1533 15.2493C17.1534 15.3808 17.119 15.5099 17.0535 15.6238C16.9879 15.7378 16.8936 15.8325 16.78 15.8985C16.6664 15.9645 16.5374 15.9995 16.4059 16H1.59343C1.462 15.9995 1.333 15.9645 1.21935 15.8985C1.10571 15.8325 1.0114 15.7378 0.94589 15.6238C0.880376 15.5099 0.845953 15.3808 0.84607 15.2493C0.846186 15.1179 0.880837 14.9888 0.946553 14.875C1.5653 13.8062 2.26843 11.8562 2.26843 8.49998V7.74998Z" stroke="#2E335B" stroke-width="1.5" stroke-linecap="round" stroke-linejoin="round"/>
<path d="M6 16V16.75C6 17.5456 6.31607 18.3087 6.87868 18.8713C7.44129 19.4339 8.20435 19.75 9 19.75C9.79565 19.75 10.5587 19.4339 11.1213 18.8713C11.6839 18.3087 12 17.5456 12 16.75V16" stroke="#2E335B" stroke-width="1.5" stroke-linecap="round" stroke-linejoin="round"/>
<circle cx="14" cy="4" r="3.5" fill="#E34255" stroke="#EEEDEB"/>
</svg>
