<svg width="22" height="24" viewBox="0 0 22 24" fill="none" xmlns="http://www.w3.org/2000/svg">
<path d="M21.0625 17.1735V6.82658C21.0617 6.6708 21.0198 6.518 20.941 6.38358C20.8623 6.24916 20.7495 6.13788 20.6141 6.06095L11.4266 0.86564C11.2969 0.790763 11.1498 0.751343 11 0.751343C10.8502 0.751343 10.7031 0.790763 10.5734 0.86564L1.38594 6.06095C1.25048 6.13788 1.13769 6.24916 1.05896 6.38358C0.980233 6.518 0.938337 6.6708 0.9375 6.82658V17.1735C0.938337 17.3292 0.980233 17.482 1.05896 17.6165C1.13769 17.7509 1.25048 17.8622 1.38594 17.9391L10.5734 23.1344C10.7031 23.2093 10.8502 23.2487 11 23.2487C11.1498 23.2487 11.2969 23.2093 11.4266 23.1344L20.6141 17.9391C20.7495 17.8622 20.8623 17.7509 20.941 17.6165C21.0198 17.482 21.0617 17.3292 21.0625 17.1735V17.1735Z" stroke="#2E335B" stroke-width="1.5" stroke-linecap="round" stroke-linejoin="round"/>
<path d="M11 15.9375C13.1746 15.9375 14.9375 14.1746 14.9375 12C14.9375 9.82538 13.1746 8.0625 11 8.0625C8.82538 8.0625 7.0625 9.82538 7.0625 12C7.0625 14.1746 8.82538 15.9375 11 15.9375Z" stroke="#2E335B" stroke-width="1.5" stroke-linecap="round" stroke-linejoin="round"/>
</svg>
