<svg width="26" height="26" viewBox="0 0 26 26" fill="none" xmlns="http://www.w3.org/2000/svg">
<path d="M16.3578 16.8828L13.8203 23.8609C13.7581 24.0284 13.6462 24.1728 13.4996 24.2748C13.353 24.3768 13.1786 24.4314 13 24.4314C12.8214 24.4314 12.647 24.3768 12.5004 24.2748C12.3538 24.1728 12.2418 24.0284 12.1797 23.8609L9.64218 16.8828C9.59786 16.7625 9.52797 16.6533 9.43733 16.5627C9.34669 16.472 9.23746 16.4021 9.11718 16.3578L2.13906 13.8203C1.9716 13.7581 1.82718 13.6462 1.72519 13.4996C1.62321 13.353 1.56854 13.1786 1.56854 13C1.56854 12.8214 1.62321 12.647 1.72519 12.5004C1.82718 12.3538 1.9716 12.2418 2.13906 12.1797L9.11718 9.64218C9.23746 9.59786 9.34669 9.52797 9.43733 9.43733C9.52797 9.34669 9.59786 9.23746 9.64218 9.11718L12.1797 2.13906C12.2418 1.9716 12.3538 1.82718 12.5004 1.72519C12.647 1.62321 12.8214 1.56854 13 1.56854C13.1786 1.56854 13.353 1.62321 13.4996 1.72519C13.6462 1.82718 13.7581 1.9716 13.8203 2.13906L16.3578 9.11718C16.4021 9.23746 16.472 9.34669 16.5627 9.43733C16.6533 9.52797 16.7625 9.59786 16.8828 9.64218L23.8609 12.1797C24.0284 12.2418 24.1728 12.3538 24.2748 12.5004C24.3768 12.647 24.4314 12.8214 24.4314 13C24.4314 13.1786 24.3768 13.353 24.2748 13.4996C24.1728 13.6462 24.0284 13.7581 23.8609 13.8203L16.8828 16.3578C16.7625 16.4021 16.6533 16.472 16.5627 16.5627C16.472 16.6533 16.4021 16.7625 16.3578 16.8828V16.8828Z" stroke="#2E335B" stroke-width="1.5" stroke-linecap="round" stroke-linejoin="round"/>
</svg>
