<svg width="24" height="24" viewBox="0 0 24 24" fill="none" xmlns="http://www.w3.org/2000/svg">
<path d="M12 22.5C17.799 22.5 22.5 17.799 22.5 12C22.5 6.20101 17.799 1.5 12 1.5C6.20101 1.5 1.5 6.20101 1.5 12C1.5 17.799 6.20101 22.5 12 22.5Z" stroke="#2E335B" stroke-width="1.5" stroke-linecap="round" stroke-linejoin="round"/>
<path d="M12 15.5C14.4162 15.5 16.375 13.5412 16.375 11.125C16.375 8.70875 14.4162 6.75 12 6.75C9.58375 6.75 7.625 8.70875 7.625 11.125C7.625 13.5412 9.58375 15.5 12 15.5Z" stroke="#2E335B" stroke-width="1.5" stroke-linecap="round" stroke-linejoin="round"/>
<path d="M4.97815 19.8094C5.63649 18.5126 6.64104 17.4235 7.88046 16.6628C9.11988 15.902 10.5458 15.4993 12 15.4993C13.4543 15.4993 14.8802 15.902 16.1196 16.6628C17.359 17.4235 18.3636 18.5126 19.0219 19.8094" stroke="#2E335B" stroke-width="1.5" stroke-linecap="round" stroke-linejoin="round"/>
</svg>
